# Made with Blender 4.2.2 LTS (www.blender.org)
# (C) Claudio Z. 2024 (@cloudofoz)
o tv_shop_env_fg
v -2.398427 -0.234883 3.444639
v -2.245860 -0.015803 2.391833
v -2.245860 4.419170 2.391833
v 2.458940 4.419170 2.391833
v 3.703785 4.419170 2.391833
v 4.036257 -0.015803 2.391833
v 4.036257 4.419170 2.391833
v 2.442113 4.247770 2.391833
v 3.703785 4.247770 2.391833
v 4.036257 4.247770 2.391833
v 2.458940 -0.015803 2.391833
v -2.262686 -0.015803 2.391833
v 3.703785 -0.015803 2.391833
v 2.458940 -0.015803 2.701336
v -2.262686 -0.015803 2.701336
v 3.703785 -0.015803 2.701336
v 4.036257 -0.015803 2.701336
v 2.458940 -0.234883 2.701336
v -2.262686 -0.234883 2.701336
v 3.703785 -0.234883 2.701336
v 4.036257 -0.234883 2.701336
v 2.458940 -0.234883 3.444639
v -2.262686 -0.234883 3.444639
v 3.703785 -0.234883 3.444639
v 4.036257 -0.234883 3.444639
v -2.398427 -0.015803 2.391833
v -2.398427 -0.015803 2.701336
v -2.398427 -0.234883 2.701336
v -2.262686 -0.015803 1.862814
v -2.398427 -0.015803 1.862814
v 3.695827 4.247770 -1.482380
v 2.442113 4.247770 1.785803
v 2.456330 -0.015803 1.790888
v 3.703785 -0.015803 -1.460981
v -9.119821 -0.234883 -13.372824
v -9.119821 -0.234883 -16.596493
v -8.536981 1.969521 -13.373177
v -8.732046 1.969521 -13.373058
v -8.927111 1.969522 -13.372940
v -7.629548 0.316218 -13.372940
v -7.867004 0.867319 -13.373058
v -8.104460 1.418419 -13.373177
v -9.119821 -0.234883 -15.790575
v -9.119821 -0.234883 -14.984657
v -9.119822 -0.234883 -14.178740
v -8.687888 -0.234883 -13.372824
v -8.255956 -0.234883 -13.372822
v -7.824024 -0.234883 -13.372824
v -8.255956 -0.234883 -16.596493
v -8.687888 -0.234883 -16.596491
v -9.121213 1.418421 -16.596493
v -9.120749 0.867320 -16.596493
v -9.120285 0.316218 -16.596491
v -9.121588 1.418421 -13.372824
v -9.120998 0.867320 -13.372822
v -9.120409 0.316218 -13.372824
v -7.824024 -0.234883 -14.178740
v -7.824024 -0.234883 -14.984659
v -8.255956 -0.234883 -14.178741
v -8.255956 -0.234883 -14.984657
v -8.255956 -0.234883 -15.790575
v -8.687887 -0.234883 -14.178740
v -8.687888 -0.234883 -14.984657
v -8.687887 -0.234883 -15.790573
v -8.688584 0.867320 -16.596493
v -8.688235 0.316218 -16.596493
v -8.358741 1.418420 -13.373089
v -8.180502 0.867319 -13.372999
v -8.002262 0.316218 -13.372911
v -8.613023 1.418420 -13.372999
v -8.494000 0.867319 -13.372940
v -8.374978 0.316218 -13.372881
v -8.867305 1.418420 -13.372910
v -8.807499 0.867319 -13.372883
v -8.747693 0.316218 -13.372852
v -9.121494 1.418421 -14.178740
v -9.120937 0.867320 -14.178741
v -9.120378 0.316218 -14.178740
v -9.121400 1.418421 -14.984657
v -9.120872 0.867320 -14.984659
v -9.120346 0.316218 -14.984657
v -9.121305 1.418421 -15.790573
v -9.120811 0.867320 -15.790577
v -9.120316 0.316218 -15.790575
vn -0.0000 -0.0000 1.0000
vn -1.0000 -0.0009 0.0010
vn -0.0000 1.0000 -0.0000
vn -0.0000 -1.0000 -0.0000
vn -0.0003 -0.0002 -1.0000
vn -0.0001 -0.0002 -1.0000
vn -0.0003 -0.0001 -1.0000
vn -0.0001 -0.0001 -1.0000
vn -0.0003 -0.0003 -1.0000
vn -0.0000 -0.0001 -1.0000
vn -0.0000 -0.0000 -1.0000
vn -0.0001 -0.0000 -1.0000
vn -0.0003 -0.0000 -1.0000
vn -0.0005 -0.0002 -1.0000
vn -0.0005 -0.0003 -1.0000
vn 1.0000 0.0010 0.0001
vn 1.0000 0.0009 0.0001
vn 1.0000 0.0010 -0.0000
vn 1.0000 0.0009 -0.0000
vt 0.007947 0.571420
vt 0.008816 0.005095
vt 0.943047 0.006528
vt 0.942178 0.572852
vt 0.830778 0.623355
vt 0.722707 0.623355
vt 0.722707 0.614965
vt 0.829338 0.614965
vt 0.694227 0.623354
vt 0.694227 0.614965
vt 0.350983 0.862021
vt 0.350983 0.841213
vt 0.503464 0.841213
vt 0.503464 0.862021
vt 0.941997 0.900166
vt 0.530238 0.899535
vt 0.532910 0.640601
vt 0.942394 0.641229
vt 0.515115 0.739258
vt 0.514962 0.645563
vt 0.528273 0.645497
vt 0.528427 0.739191
vt 0.515156 0.764282
vt 0.528467 0.764215
vt 0.893225 0.626547
vt 0.893225 0.636992
vt 0.614379 0.636991
vt 0.614379 0.626547
vt 0.721074 0.948395
vt 0.531654 0.948396
vt 0.531049 0.918009
vt 0.721751 0.918363
vt 0.771665 0.948396
vt 0.771680 0.928289
vt 0.538902 0.914300
vt 0.542237 0.902740
vt 0.810093 0.902821
vt 0.810321 0.914300
vt 0.512556 0.943335
vt 0.452295 0.942993
vt 0.452625 0.886927
vt 0.512481 0.886926
vt 0.528313 0.952942
vt 0.528467 0.886927
vt 0.228245 0.942787
vt 0.225594 0.886927
vt 0.218912 0.952942
vt 0.219067 0.886927
vt 0.531099 0.914300
vt 0.531105 0.906705
vt 0.901242 0.626547
vt 0.901242 0.636993
vt 0.893225 0.608694
vt 0.901242 0.608694
vt 0.349408 0.740089
vt 0.489116 0.645497
vt 0.350816 0.742057
vt 0.376881 0.742151
vt 0.517102 0.837018
vt 0.350474 0.837018
vt 0.357979 0.703492
vt 0.357744 0.695921
vt 0.365535 0.695451
vt 0.366005 0.702788
vt 0.373326 0.694982
vt 0.374030 0.702083
vt 0.365066 0.688115
vt 0.372621 0.687880
vt 0.364596 0.680779
vt 0.371917 0.680779
vt 0.379238 0.680779
vt 0.380177 0.687646
vt 0.381116 0.694512
vt 0.382055 0.701379
vt 0.374734 0.709185
vt 0.382995 0.708246
vt 0.366474 0.710124
vt 0.358214 0.711063
vt 0.978761 0.605781
vt 0.977742 0.622523
vt 0.959319 0.623397
vt 0.960083 0.607529
vt 0.976724 0.639266
vt 0.958555 0.639266
vt 0.022881 0.940813
vt 0.035330 0.936262
vt 0.034932 0.948600
vt 0.022285 0.950476
vt 0.047778 0.931712
vt 0.047579 0.946723
vt 0.034535 0.960937
vt 0.021690 0.960139
vt 0.047381 0.961735
vt 0.023477 0.931150
vt 0.035727 0.923925
vt 0.047977 0.916700
vt 0.060226 0.927161
vt 0.060226 0.944847
vt 0.060226 0.962532
vt 0.060226 0.980218
vt 0.047182 0.976746
vt 0.034138 0.973274
vt 0.021094 0.969802
vt 0.009638 0.952352
vt 0.008844 0.959341
vt 0.010433 0.945364
vt 0.019301 0.585918
vt 0.028393 0.586402
vt 0.029240 0.594931
vt 0.020190 0.594608
vt 0.037486 0.586885
vt 0.038289 0.595253
vt 0.030086 0.603460
vt 0.021079 0.603299
vt 0.039093 0.603621
vt 0.018412 0.577228
vt 0.027547 0.577872
vt 0.036682 0.578517
vt 0.045817 0.579162
vt 0.046578 0.587369
vt 0.047339 0.595576
vt 0.048100 0.603783
vt 0.048861 0.611990
vt 0.039897 0.611989
vt 0.030932 0.611990
vt 0.021967 0.611989
s 0
f 2/1/1 11/2/1 4/3/1 3/4/1
f 8/5/1 9/6/1 5/7/1 4/8/1
f 9/6/1 10/9/1 7/10/1 5/7/1
f 13/11/1 6/12/1 10/13/1 9/14/1
f 9/15/2 31/16/2 34/17/2 13/18/2
f 13/19/3 11/20/3 14/21/3 16/22/3
f 6/23/3 13/19/3 16/22/3 17/24/3
f 12/25/3 15/26/3 14/27/3 11/28/3
f 16/29/1 14/30/1 18/31/1 20/32/1
f 17/33/1 16/29/1 20/32/1 21/34/1
f 15/35/1 19/36/1 18/37/1 14/38/1
f 20/39/3 18/40/3 22/41/3 24/42/3
f 21/43/3 20/39/3 24/42/3 25/44/3
f 19/45/3 23/46/3 22/41/3 18/40/3
f 19/45/3 28/47/3 1/48/3 23/46/3
f 15/35/1 27/49/1 28/50/1 19/36/1
f 12/25/3 26/51/3 27/52/3 15/26/3
f 12/25/3 29/53/3 30/54/3 26/51/3
f 13/19/3 34/55/3 33/56/3 11/20/3
f 8/57/4 32/58/4 31/59/4 9/60/4
f 57/61/3 58/62/3 60/63/3 59/64/3
f 59/64/3 60/63/3 63/65/3 62/66/3
f 60/63/3 61/67/3 64/68/3 63/65/3
f 61/67/3 49/69/3 50/70/3 64/68/3
f 64/68/3 50/70/3 36/71/3 43/72/3
f 63/65/3 64/68/3 43/72/3 44/73/3
f 62/66/3 63/65/3 44/73/3 45/74/3
f 46/75/3 62/66/3 45/74/3 35/76/3
f 47/77/3 59/64/3 62/66/3 46/75/3
f 48/78/3 57/61/3 59/64/3 47/77/3
f 52/79/1 53/80/1 66/81/1 65/82/1
f 53/80/1 36/83/1 50/84/1 66/81/1
f 67/85/5 68/86/5 71/87/5 70/88/5
f 68/86/6 69/89/6 72/90/6 71/87/6
f 70/88/7 71/87/7 74/91/7 73/92/7
f 71/87/8 72/90/8 75/93/8 74/91/8
f 42/94/9 41/95/9 68/86/9 67/85/9
f 41/95/6 40/96/6 69/89/6 68/86/6
f 69/89/10 48/97/10 47/98/10 72/90/10
f 72/90/10 47/98/10 46/99/10 75/93/10
f 75/93/11 46/99/11 35/100/11 56/101/11
f 74/91/12 75/93/12 56/101/12 55/102/12
f 73/92/13 74/91/13 55/102/13 54/103/13
f 38/104/14 70/88/14 73/92/14 39/105/14
f 37/106/15 67/85/15 70/88/15 38/104/15
f 76/107/16 77/108/16 80/109/16 79/110/16
f 77/108/16 78/111/16 81/112/16 80/109/16
f 79/110/17 80/109/17 83/113/17 82/114/17
f 80/109/17 81/112/17 84/115/17 83/113/17
f 54/116/16 55/117/16 77/108/16 76/107/16
f 55/117/16 56/118/16 78/111/16 77/108/16
f 56/118/18 35/119/18 45/120/18 78/111/18
f 78/111/18 45/120/18 44/121/18 81/112/18
f 81/112/19 44/121/19 43/122/19 84/115/19
f 84/115/19 43/122/19 36/123/19 53/124/19
f 83/113/17 84/115/17 53/124/17 52/125/17
f 82/114/17 83/113/17 52/125/17 51/126/17
